# xmcd
#
# Track frame offsets:
#	150
#	10997
#	22871
#	34188
#	43975
#	58559
#	69820
#	78369
#	90041
#	107715
#	125435
#	138192
#	150753
#	165030
#	184848
#	195058
#	213450
#	229221
#	249004
#	261477
#
# Disc length: 3622 seconds
#
# Revision: 0
# Processed by: cddbd v1.5.2PL0 Copyright (c) Steve Scherf et al.
# Submitted via: EasyCDDAExtractor 2010.6.0.0
#
DISCID=e70e2414
DTITLE=Various Artist - Country Ladies [CD 4)
DYEAR=1900
DGENRE=Country
TTITLE0=Sandy Posey - Single girl
TTITLE1=Sandy Posey - Bring him safely home to me
TTITLE2=Sandy Posey - I take it back
TTITLE3=Sandy Posey - What a woman won't do
TTITLE4=Sandy Posey - Put your hand in the hand
TTITLE5=Sandy Posey - I will follow him
TTITLE6=Sandy Posey - Born a woman
TTITLE7=Skeeter Davis - Bye bye love
TTITLE8=Skeeter Davis - Take it easy
TTITLE9=Skeeter Davis - Always on my mind
TTITLE10=Skeeter Davis - My guy
TTITLE11=Skeeter Davis - Me and Bobby McGee
TTITLE12=Skeeter Davis - Hopelessly devoted to you
TTITLE13=Skeeter Davis - Inside out
TTITLE14=Skeeter Davis - You don't have to be a baby to cry
TTITLE15=Skeeter Davis - Just when I needed you most
TTITLE16=Skeeter Davis - Desperado
TTITLE17=Skeeter Davis - I can't stop loving you
TTITLE18=Skeeter Davis - The end of the world
TTITLE19=Skeeter Davis - I ain't never
EXTD=
EXTT0=
EXTT1=
EXTT2=
EXTT3=
EXTT4=
EXTT5=
EXTT6=
EXTT7=
EXTT8=
EXTT9=
EXTT10=
EXTT11=
EXTT12=
EXTT13=
EXTT14=
EXTT15=
EXTT16=
EXTT17=
EXTT18=
EXTT19=
PLAYORDER=
